<svg width="53" height="32" viewBox="0 0 53 32" fill="none" xmlns="http://www.w3.org/2000/svg">
  <path d="M0.254688 24V0.439998H17.6547C20.1614 0.439998 21.988 0.946665 23.1347 1.96C24.2814 2.94667 24.8547 4.14667 24.8547 5.56V6.76C24.8547 7.85333 24.6147 8.76 24.1347 9.48C23.6814 10.1733 23.188 10.6667 22.6547 10.96C23.828 11.3333 24.7614 11.9867 25.4547 12.92C26.148 13.8267 26.4947 15.0267 26.4947 16.52V17.24C26.4947 18.04 26.4014 18.84 26.2147 19.64C26.028 20.44 25.668 21.1733 25.1347 21.84C24.628 22.48 23.8947 23 22.9347 23.4C22.0014 23.8 20.7747 24 19.2547 24H0.254688ZM5.53469 9.88H16.8147C17.748 9.90667 18.4414 9.68 18.8947 9.2C19.348 8.69333 19.5747 8.06667 19.5747 7.32V6.92C19.5747 6.30667 19.3614 5.72 18.9347 5.16C18.508 4.57333 17.708 4.28 16.5347 4.28H5.53469V9.88ZM5.53469 20.16H18.1347C19.148 20.16 19.908 19.9067 20.4147 19.4C20.948 18.8933 21.2147 18.2 21.2147 17.32V16.6C21.2147 15.7733 20.908 15.1067 20.2947 14.6C19.6814 14.0667 18.668 13.8 17.2547 13.8H5.53469V20.16ZM44.4506 31.04C41.5173 31.04 39.1306 31.0133 37.2906 30.96C35.4506 30.9067 34.0373 30.8267 33.0506 30.72C32.064 30.6133 31.384 30.48 31.0106 30.32C30.664 30.16 30.4906 29.9867 30.4906 29.8L31.6906 26.8C32.1173 26.9333 32.864 27.0933 33.9306 27.28C35.024 27.4933 36.4106 27.6 38.0906 27.6H44.9306C45.9173 27.6 46.6106 27.4533 47.0106 27.16C47.4373 26.8667 47.6506 26.3467 47.6506 25.6V23.2C46.504 23.4133 45.144 23.6 43.5706 23.76C42.024 23.92 40.2373 24 38.2106 24H36.2106C34.8773 24 33.8506 23.8267 33.1306 23.48C32.4106 23.1333 31.8906 22.6933 31.5706 22.16C31.2773 21.6267 31.0906 21.0667 31.0106 20.48C30.9573 19.8933 30.9306 19.36 30.9306 18.88V11.2C30.9306 10.8 30.9573 10.32 31.0106 9.76C31.0906 9.17333 31.2773 8.6 31.5706 8.04C31.8906 7.48 32.4106 7.01333 33.1306 6.64C33.8773 6.26667 34.904 6.08 36.2106 6.08H38.2506C41.0506 6.08 43.224 6.13333 44.7706 6.24C46.344 6.34667 47.4906 6.46667 48.2106 6.6L49.2506 6.08H52.5306V25.92C52.5306 26.4 52.4506 26.9333 52.2906 27.52C52.1573 28.1067 51.8773 28.6667 51.4506 29.2C51.024 29.7333 50.4106 30.1733 49.6106 30.52C48.8106 30.8667 47.7573 31.04 46.4506 31.04H44.4506ZM37.7306 20.56H46.4106C47.024 20.56 47.384 20.5067 47.4906 20.4C47.5973 20.2933 47.6506 19.9467 47.6506 19.36V9.8C46.744 9.74667 45.5973 9.69333 44.2106 9.64C42.824 9.56 41.344 9.52 39.7706 9.52H37.7306C36.4506 9.52 35.8106 10.0533 35.8106 11.12V18.96C35.784 20.0267 36.424 20.56 37.7306 20.56Z" fill="white"/>
</svg>
